<?xml version="1.0" standalone="no"?>
<!DOCTYPE svg PUBLIC "-//W3C//DTD SVG 20010904//EN"
 "http://www.w3.org/TR/2001/REC-SVG-20010904/DTD/svg10.dtd">
<svg version="1.0" xmlns="http://www.w3.org/2000/svg"
 width="512.000000pt" height="512.000000pt" viewBox="0 0 512.000000 512.000000"
 preserveAspectRatio="xMidYMid meet">

<g transform="translate(0.000000,512.000000) scale(0.100000,-0.100000)"
fill="#000000" stroke="none">
<path d="M1153 5110 c-555 -60 -996 -457 -1126 -1015 -21 -89 -21 -109 -25
-1475 -3 -1439 -2 -1489 38 -1650 54 -211 170 -419 324 -575 191 -194 419
-317 691 -372 84 -17 178 -18 1505 -18 1327 0 1421 1 1505 18 522 105 906 480
1028 1002 21 89 21 109 25 1460 4 1453 2 1504 -43 1673 -112 415 -425 752
-827 888 -210 72 -112 67 -1643 70 -759 1 -1413 -2 -1452 -6z m259 -961 c188
-40 316 -217 293 -404 -15 -117 -103 -241 -208 -293 -108 -53 -251 -46 -355
18 -198 121 -237 396 -81 565 93 101 219 142 351 114z m296 -2116 l2 -1053
-370 0 -370 0 0 1048 c0 577 3 1052 7 1055 4 4 169 6 367 5 l361 -3 3 -1052z
m1012 912 c0 -80 4 -145 8 -145 4 0 15 12 24 28 27 44 97 111 155 149 132 84
289 118 508 110 450 -17 653 -203 716 -652 6 -49 13 -350 16 -767 l5 -688
-310 0 -311 0 -3 618 c-3 553 -6 623 -21 677 -41 139 -93 212 -184 256 -43 21
-62 24 -168 24 -104 0 -127 -4 -172 -24 -62 -28 -136 -103 -163 -166 -54 -126
-53 -115 -57 -772 l-4 -613 -305 0 -304 0 0 1055 0 1055 285 0 285 0 0 -145z"/>
</g>
</svg>
